<svg width="34" height="34" viewBox="0 0 34 34" fill="none" xmlns="http://www.w3.org/2000/svg">
<path d="M33.15 10.0153V10.0167V23.9833C33.15 26.9172 32.2774 29.1988 30.7298 30.7464C29.1822 32.2941 26.9006 33.1667 23.9667 33.1667H10.0167C7.08282 33.1667 4.80138 32.2941 3.25382 30.7446C1.70618 29.195 0.833374 26.9093 0.833374 23.9667V10.0167C0.833374 7.08276 1.70597 4.80117 3.25359 3.25355C4.80122 1.70592 7.08281 0.833328 10.0167 0.833328H23.9834C26.9174 0.833328 29.1988 1.70597 30.7442 3.25333C32.2895 4.80058 33.1581 7.08171 33.15 10.0153ZM14.8193 26.976L14.8214 26.9769C15.7047 27.3517 16.6667 26.7043 16.6667 25.75V10.4833C16.6667 10.051 16.4618 9.58453 16.0129 9.33148C14.0231 8.19963 10.8704 7.17469 8.70658 7.00159L8.70606 7.00155C7.1482 6.87856 5.86671 8.05878 5.86671 9.63333V22.4667C5.86671 23.7498 6.88494 24.913 8.15169 25.0791L8.15167 25.0792L8.16436 25.0806L8.47563 25.1133C10.2492 25.34 12.833 26.1224 14.8193 26.976ZM25.8308 25.0644L25.8396 25.0636L25.8484 25.0624C27.1151 24.8963 28.1334 23.7331 28.1334 22.45V9.81666C28.1334 8.25719 26.8762 7 25.3167 7H25.25H25.2277L25.2055 7.00198C23.0791 7.19215 19.9949 8.18248 18.0056 9.29714L18.0049 9.29754C17.5671 9.5438 17.3334 10.0023 17.3334 10.4667V25.7167C17.3334 26.6705 18.2946 27.3178 19.1776 26.9441C21.1621 26.1076 23.7295 25.3408 25.4913 25.0967L25.8308 25.0644Z" fill="#546FFF" stroke="black"/>
</svg>
